<svg width="215" height="215" viewBox="0 0 215 215" fill="none" xmlns="http://www.w3.org/2000/svg">
<circle cx="107.5" cy="107.5" r="105" fill="white" stroke="#E6E6E6" stroke-width="5"/>
<path d="M23.5 100C23.5 89.7827 31.7827 81.5 42 81.5H73.5V114C73.5 124.217 65.2173 132.5 55 132.5H23.5V100Z" stroke="#404040" stroke-width="3"/>
<path d="M48.264 122.294C46.332 122.294 44.624 121.958 43.14 121.286C41.684 120.614 40.536 119.676 39.696 118.472C38.856 117.268 38.408 115.924 38.352 114.44H41.46C41.6 115.868 42.23 117.128 43.35 118.22C44.47 119.284 46.108 119.816 48.264 119.816C50.252 119.816 51.82 119.312 52.968 118.304C54.144 117.268 54.732 115.966 54.732 114.398C54.732 113.138 54.41 112.13 53.766 111.374C53.122 110.59 52.324 110.016 51.372 109.652C50.42 109.26 49.104 108.84 47.424 108.392C45.464 107.86 43.91 107.342 42.762 106.838C41.614 106.334 40.634 105.55 39.822 104.486C39.01 103.422 38.604 101.98 38.604 100.16C38.604 98.648 38.996 97.304 39.78 96.128C40.564 94.924 41.67 93.986 43.098 93.314C44.526 92.642 46.164 92.306 48.012 92.306C50.728 92.306 52.912 92.978 54.564 94.322C56.244 95.638 57.21 97.346 57.462 99.446H54.27C54.074 98.242 53.416 97.178 52.296 96.254C51.176 95.302 49.664 94.826 47.76 94.826C45.996 94.826 44.526 95.302 43.35 96.254C42.174 97.178 41.586 98.452 41.586 100.076C41.586 101.308 41.908 102.302 42.552 103.058C43.196 103.814 43.994 104.388 44.946 104.78C45.926 105.172 47.242 105.592 48.894 106.04C50.798 106.572 52.338 107.104 53.514 107.636C54.69 108.14 55.684 108.924 56.496 109.988C57.308 111.052 57.714 112.48 57.714 114.272C57.714 115.644 57.35 116.946 56.622 118.178C55.894 119.41 54.816 120.404 53.388 121.16C51.96 121.916 50.252 122.294 48.264 122.294Z" fill="black"/>
<path d="M86.716 101.161C85.658 101.161 84.7227 100.977 83.91 100.609C83.1127 100.241 82.484 99.7273 82.024 99.068C81.564 98.4087 81.3187 97.6727 81.288 96.86H82.99C83.0667 97.642 83.4117 98.332 84.025 98.93C84.6383 99.5127 85.5353 99.804 86.716 99.804C87.8047 99.804 88.6633 99.528 89.292 98.976C89.936 98.4087 90.258 97.6957 90.258 96.837C90.258 96.147 90.0817 95.595 89.729 95.181C89.3763 94.7517 88.9393 94.4373 88.418 94.238C87.8967 94.0233 87.176 93.7933 86.256 93.548C85.1827 93.2567 84.3317 92.973 83.703 92.697C83.0743 92.421 82.5377 91.9917 82.093 91.409C81.6483 90.8263 81.426 90.0367 81.426 89.04C81.426 88.212 81.6407 87.476 82.07 86.832C82.4993 86.1727 83.105 85.659 83.887 85.291C84.669 84.923 85.566 84.739 86.578 84.739C88.0653 84.739 89.2613 85.107 90.166 85.843C91.086 86.5637 91.615 87.499 91.753 88.649H90.005C89.8977 87.9897 89.5373 87.407 88.924 86.901C88.3107 86.3797 87.4827 86.119 86.44 86.119C85.474 86.119 84.669 86.3797 84.025 86.901C83.381 87.407 83.059 88.1047 83.059 88.994C83.059 89.6687 83.2353 90.213 83.588 90.627C83.9407 91.041 84.3777 91.3553 84.899 91.57C85.4357 91.7847 86.1563 92.0147 87.061 92.26C88.1037 92.5513 88.947 92.8427 89.591 93.134C90.235 93.41 90.7793 93.8393 91.224 94.422C91.6687 95.0047 91.891 95.7867 91.891 96.768C91.891 97.5193 91.6917 98.2323 91.293 98.907C90.8943 99.5817 90.304 100.126 89.522 100.54C88.74 100.954 87.8047 101.161 86.716 101.161ZM107.399 84.923V86.257H102.937V101H101.327V86.257H96.8421V84.923H107.399ZM114.472 84.923V95.043C114.472 96.6377 114.848 97.8183 115.599 98.585C116.366 99.3517 117.409 99.735 118.727 99.735C120.046 99.735 121.073 99.3593 121.809 98.608C122.561 97.8413 122.936 96.653 122.936 95.043V84.923H124.546V95.02C124.546 97.0593 124.002 98.5927 122.913 99.62C121.84 100.647 120.437 101.161 118.704 101.161C116.972 101.161 115.561 100.647 114.472 99.62C113.399 98.5927 112.862 97.0593 112.862 95.02V84.923H114.472ZM135.888 84.923C137.667 84.923 139.193 85.245 140.465 85.889C141.738 86.533 142.712 87.4607 143.386 88.672C144.061 89.8833 144.398 91.3247 144.398 92.996C144.398 94.652 144.061 96.0857 143.386 97.297C142.712 98.493 141.738 99.413 140.465 100.057C139.193 100.686 137.667 101 135.888 101H131.127V84.923H135.888ZM135.888 99.666C138.127 99.666 139.829 99.0833 140.994 97.918C142.175 96.7373 142.765 95.0967 142.765 92.996C142.765 90.88 142.175 89.2317 140.994 88.051C139.829 86.855 138.127 86.257 135.888 86.257H132.737V99.666H135.888ZM160.983 84.923L155.831 94.744V101H154.221V94.744L149.023 84.923H150.84L155.026 93.272L159.189 84.923H160.983ZM93.777 113.923V130H92.167V122.479H83.45V130H81.84V113.923H83.45V121.145H92.167V113.923H93.777ZM109.755 126.182H102.441L101.038 130H99.3364L105.201 114.13H107.018L112.86 130H111.158L109.755 126.182ZM109.272 124.848L106.098 116.154L102.924 124.848H109.272ZM117.698 121.95C117.698 120.371 118.043 118.96 118.733 117.718C119.423 116.461 120.366 115.487 121.562 114.797C122.758 114.092 124.092 113.739 125.564 113.739C127.358 113.739 128.892 114.168 130.164 115.027C131.452 115.87 132.388 117.066 132.97 118.615H131.084C130.624 117.526 129.919 116.675 128.968 116.062C128.033 115.449 126.898 115.142 125.564 115.142C124.384 115.142 123.318 115.418 122.367 115.97C121.432 116.522 120.696 117.319 120.159 118.362C119.623 119.389 119.354 120.585 119.354 121.95C119.354 123.315 119.623 124.511 120.159 125.538C120.696 126.565 121.432 127.355 122.367 127.907C123.318 128.459 124.384 128.735 125.564 128.735C126.898 128.735 128.033 128.436 128.968 127.838C129.919 127.225 130.624 126.381 131.084 125.308H132.97C132.388 126.841 131.452 128.03 130.164 128.873C128.876 129.716 127.343 130.138 125.564 130.138C124.092 130.138 122.758 129.793 121.562 129.103C120.366 128.398 119.423 127.424 118.733 126.182C118.043 124.94 117.698 123.529 117.698 121.95ZM147.747 130L140.778 122.571V130H139.168V113.923H140.778V121.444L147.747 113.923H149.794L142.273 121.95L149.863 130H147.747ZM156.841 115.234V121.237H162.936V122.571H156.841V128.666H163.626V130H155.231V113.9H163.626V115.234H156.841ZM178.344 130L174.365 123.284H171.398V130H169.788V113.923H174.618C176.412 113.923 177.769 114.352 178.689 115.211C179.624 116.07 180.092 117.197 180.092 118.592C180.092 119.757 179.755 120.754 179.08 121.582C178.421 122.395 177.439 122.924 176.136 123.169L180.276 130H178.344ZM171.398 121.973H174.641C175.898 121.973 176.841 121.666 177.47 121.053C178.114 120.44 178.436 119.619 178.436 118.592C178.436 117.534 178.129 116.721 177.516 116.154C176.903 115.571 175.937 115.28 174.618 115.28H171.398V121.973ZM191.153 130.161C190.095 130.161 189.16 129.977 188.347 129.609C187.55 129.241 186.921 128.727 186.461 128.068C186.001 127.409 185.756 126.673 185.725 125.86H187.427C187.504 126.642 187.849 127.332 188.462 127.93C189.075 128.513 189.972 128.804 191.153 128.804C192.242 128.804 193.1 128.528 193.729 127.976C194.373 127.409 194.695 126.696 194.695 125.837C194.695 125.147 194.519 124.595 194.166 124.181C193.813 123.752 193.376 123.437 192.855 123.238C192.334 123.023 191.613 122.793 190.693 122.548C189.62 122.257 188.769 121.973 188.14 121.697C187.511 121.421 186.975 120.992 186.53 120.409C186.085 119.826 185.863 119.037 185.863 118.04C185.863 117.212 186.078 116.476 186.507 115.832C186.936 115.173 187.542 114.659 188.324 114.291C189.106 113.923 190.003 113.739 191.015 113.739C192.502 113.739 193.698 114.107 194.603 114.843C195.523 115.564 196.052 116.499 196.19 117.649H194.442C194.335 116.99 193.974 116.407 193.361 115.901C192.748 115.38 191.92 115.119 190.877 115.119C189.911 115.119 189.106 115.38 188.462 115.901C187.818 116.407 187.496 117.105 187.496 117.994C187.496 118.669 187.672 119.213 188.025 119.627C188.378 120.041 188.815 120.355 189.336 120.57C189.873 120.785 190.593 121.015 191.498 121.26C192.541 121.551 193.384 121.843 194.028 122.134C194.672 122.41 195.216 122.839 195.661 123.422C196.106 124.005 196.328 124.787 196.328 125.768C196.328 126.519 196.129 127.232 195.73 127.907C195.331 128.582 194.741 129.126 193.959 129.54C193.177 129.954 192.242 130.161 191.153 130.161Z" fill="black"/>
</svg>
