<svg width="456" height="180" viewBox="0 0 456 180" fill="none" xmlns="http://www.w3.org/2000/svg">
<path d="M117.6 48.6L92.88 132H77.4L59.88 68.88L41.28 132L25.92 132.12L2.28 48.6H16.8L34.08 116.52L52.8 48.6H68.16L85.56 116.16L102.96 48.6H117.6ZM166.923 132.84C159.163 132.84 152.003 131.04 145.443 127.44C138.963 123.76 133.803 118.68 129.963 112.2C126.203 105.64 124.323 98.28 124.323 90.12C124.323 81.96 126.203 74.64 129.963 68.16C133.803 61.68 138.963 56.64 145.443 53.04C152.003 49.36 159.163 47.52 166.923 47.52C174.763 47.52 181.923 49.36 188.403 53.04C194.963 56.64 200.123 61.68 203.883 68.16C207.643 74.64 209.523 81.96 209.523 90.12C209.523 98.28 207.643 105.64 203.883 112.2C200.123 118.68 194.963 123.76 188.403 127.44C181.923 131.04 174.763 132.84 166.923 132.84ZM166.923 120.96C172.443 120.96 177.363 119.72 181.683 117.24C186.003 114.68 189.363 111.08 191.763 106.44C194.243 101.72 195.483 96.28 195.483 90.12C195.483 83.96 194.243 78.56 191.763 73.92C189.363 69.28 186.003 65.72 181.683 63.24C177.363 60.76 172.443 59.52 166.923 59.52C161.403 59.52 156.483 60.76 152.163 63.24C147.843 65.72 144.443 69.28 141.963 73.92C139.563 78.56 138.363 83.96 138.363 90.12C138.363 96.28 139.563 101.72 141.963 106.44C144.443 111.08 147.843 114.68 152.163 117.24C156.483 119.72 161.403 120.96 166.923 120.96ZM266.304 132L247.104 98.64H236.664V132H222.984V48.6H251.784C258.184 48.6 263.584 49.72 267.984 51.96C272.464 54.2 275.784 57.2 277.944 60.96C280.184 64.72 281.304 68.92 281.304 73.56C281.304 79 279.704 83.96 276.504 88.44C273.384 92.84 268.544 95.84 261.984 97.44L282.624 132H266.304ZM236.664 87.72H251.784C256.904 87.72 260.744 86.44 263.304 83.88C265.944 81.32 267.264 77.88 267.264 73.56C267.264 69.24 265.984 65.88 263.424 63.48C260.864 61 256.984 59.76 251.784 59.76H236.664V87.72ZM326.045 48.6C334.925 48.6 342.685 50.32 349.325 53.76C356.045 57.12 361.205 62 364.805 68.4C368.485 74.72 370.325 82.12 370.325 90.6C370.325 99.08 368.485 106.44 364.805 112.68C361.205 118.92 356.045 123.72 349.325 127.08C342.685 130.36 334.925 132 326.045 132H298.805V48.6H326.045ZM326.045 120.84C335.805 120.84 343.285 118.2 348.485 112.92C353.685 107.64 356.285 100.2 356.285 90.6C356.285 80.92 353.685 73.36 348.485 67.92C343.285 62.48 335.805 59.76 326.045 59.76H312.485V120.84H326.045ZM419.763 132.84C414.163 132.84 409.123 131.88 404.643 129.96C400.163 127.96 396.643 125.16 394.083 121.56C391.523 117.96 390.243 113.76 390.243 108.96H404.883C405.203 112.56 406.603 115.52 409.083 117.84C411.643 120.16 415.203 121.32 419.763 121.32C424.483 121.32 428.163 120.2 430.803 117.96C433.443 115.64 434.763 112.68 434.763 109.08C434.763 106.28 433.923 104 432.243 102.24C430.643 100.48 428.603 99.12 426.123 98.16C423.723 97.2 420.363 96.16 416.043 95.04C410.603 93.6 406.163 92.16 402.723 90.72C399.363 89.2 396.483 86.88 394.083 83.76C391.683 80.64 390.483 76.48 390.483 71.28C390.483 66.48 391.683 62.28 394.083 58.68C396.483 55.08 399.843 52.32 404.163 50.4C408.483 48.48 413.483 47.52 419.163 47.52C427.243 47.52 433.843 49.56 438.963 53.64C444.163 57.64 447.043 63.16 447.603 70.2H432.483C432.243 67.16 430.803 64.56 428.163 62.4C425.523 60.24 422.043 59.16 417.723 59.16C413.803 59.16 410.603 60.16 408.123 62.16C405.643 64.16 404.403 67.04 404.403 70.8C404.403 73.36 405.163 75.48 406.683 77.16C408.283 78.76 410.283 80.04 412.683 81C415.083 81.96 418.363 83 422.523 84.12C428.043 85.64 432.523 87.16 435.963 88.68C439.483 90.2 442.443 92.56 444.843 95.76C447.323 98.88 448.563 103.08 448.563 108.36C448.563 112.6 447.403 116.6 445.083 120.36C442.843 124.12 439.523 127.16 435.123 129.48C430.803 131.72 425.683 132.84 419.763 132.84Z" fill="black"/>
<path d="M288.5 26V155" stroke="#C3C2C2" stroke-width="10"/>
</svg>
