<svg width="567" height="354" viewBox="0 0 567 354" fill="none" xmlns="http://www.w3.org/2000/svg">
<path d="M330.481 150.394C330.481 232.351 256.986 298.725 166.348 298.725C138.805 298.725 90.0745 281.769 90.0745 281.769L46.3558 308.983L53.6943 258.254C53.6943 258.254 -1.42253 212.162 2.16865 150.331C6.99333 68.5149 75.6473 2 166.301 2C256.955 2 330.481 68.39 330.481 150.394Z" stroke="black" stroke-width="3" stroke-miterlimit="10"/>
<path d="M281.625 295.18C311.962 325.94 356.805 344.895 406.426 343.755C433.5 343.13 481.06 325.565 481.06 325.565L524.685 351L516.332 301.91C516.332 301.91 569.512 255.927 564.547 195.97C557.958 116.668 488.945 53.572 399.806 55.6331C379.912 56.0452 360.227 59.7816 341.566 66.6877" stroke="black" stroke-width="3" stroke-miterlimit="10"/>
<path d="M109.951 165.758C117.401 165.758 123.441 159.718 123.441 152.268C123.441 144.817 117.401 138.777 109.951 138.777C102.5 138.777 96.4604 144.817 96.4604 152.268C96.4604 159.718 102.5 165.758 109.951 165.758Z" stroke="black" stroke-width="3" stroke-miterlimit="10"/>
<path d="M166.254 165.758C173.705 165.758 179.745 159.718 179.745 152.268C179.745 144.817 173.705 138.777 166.254 138.777C158.804 138.777 152.764 144.817 152.764 152.268C152.764 159.718 158.804 165.758 166.254 165.758Z" stroke="black" stroke-width="3" stroke-miterlimit="10"/>
<path d="M223.963 165.758C231.414 165.758 237.453 159.718 237.453 152.268C237.453 144.817 231.414 138.777 223.963 138.777C216.512 138.777 210.473 144.817 210.473 152.268C210.473 159.718 216.512 165.758 223.963 165.758Z" stroke="black" stroke-width="3" stroke-miterlimit="10"/>
</svg>
