<svg width="386" height="386" viewBox="0 0 386 386" fill="none" xmlns="http://www.w3.org/2000/svg">
<path d="M242.937 378.392C194.857 391.343 143.625 385.108 100.055 361.003C56.4841 336.898 23.9823 296.809 9.40824 249.196C-5.16583 201.582 -0.672101 150.169 21.9411 105.806C44.5543 61.4429 83.518 27.6002 130.61 11.4197C177.701 -4.76087 229.237 -2.01347 274.342 19.0821C319.447 40.1777 354.591 77.9712 372.36 124.487C390.128 171.003 389.13 222.602 369.576 268.397C350.023 314.191 313.443 350.597 267.557 369.933" stroke="black" stroke-width="2" stroke-miterlimit="10"/>
<path d="M97.751 287.599L163.242 164.622L289.493 96.2207L221.819 220.289L97.751 287.599Z" stroke="black" stroke-width="2" stroke-miterlimit="10"/>
<path d="M193.075 207.919C201.314 207.919 207.993 201.24 207.993 193.001C207.993 184.763 201.314 178.084 193.075 178.084C184.837 178.084 178.158 184.763 178.158 193.001C178.158 201.24 184.837 207.919 193.075 207.919Z" stroke="black" stroke-width="2" stroke-miterlimit="10"/>
</svg>
