<svg width="853" height="919" viewBox="0 0 853 919" fill="none" xmlns="http://www.w3.org/2000/svg">
<path d="M2 918.682C28.2727 684.268 67.1595 459.303 243.366 337.081C303.193 371.304 358.28 408.816 398.289 456.669L406.99 428.546C450.383 450.538 498.453 468.29 498.983 529.252C501.166 603.784 490.751 673.242 461.937 735.305C446.625 765.139 425.311 781.432 398.321 784.944C399.568 832.692 399.303 877.808 396.637 918.682" stroke="black" stroke-width="3" stroke-miterlimit="10"/>
<path d="M257.54 335.475C267.028 309.089 279.398 283.728 294.446 259.812" stroke="black" stroke-width="3" stroke-miterlimit="10"/>
<path d="M341.597 364.802C348.114 341.545 358.327 320.282 375.276 302.665C415.363 336.814 469.016 347.125 502.133 246.122L526.972 238.489C510.943 225.231 506.92 203.284 510.74 175.682C513.475 158.654 512.131 141.255 506.811 124.793" stroke="black" stroke-width="3" stroke-miterlimit="10"/>
<path d="M481.021 99.9888C488.334 108.113 488.693 120.552 483.922 130.239C479.15 139.926 470.029 147.142 460.175 152.246C450.321 157.35 439.562 160.638 429.146 164.581C418.731 168.524 408.393 173.36 400.41 180.875C394.324 186.728 389.856 193.932 387.407 201.84C384.958 209.748 384.604 218.113 386.377 226.183" stroke="black" stroke-width="3" stroke-miterlimit="10"/>
<path d="M298.001 238.206C256.635 196.246 243.21 147.441 284.155 84.946C333.52 23.2252 391.726 13.3897 457.041 45.3661C480.086 59.0256 499.233 76.5092 503.817 108.218" stroke="black" stroke-width="3" stroke-miterlimit="10"/>
<path d="M434.557 417.803C423.783 403.826 417.793 387.015 417.406 369.668C417.328 365.204 417.655 360.591 419.807 356.618C422.193 352.154 426.558 349.089 430.877 346.307C444.663 337.412 459.5 330.1 475.081 324.523C478.199 323.422 481.614 322.395 484.623 323.63C488.334 325.118 489.784 329.344 490.72 333.078C497.83 361.35 499.233 409.798 489.784 449.794" stroke="black" stroke-width="3" stroke-miterlimit="10"/>
<path d="M762.335 2.2594C775.011 1.47078 788.202 2.2594 799.584 7.73511C821.912 18.3443 832.109 44.2647 831.766 68.0721C831.548 82.5649 827.9 97.5785 818.108 108.679C808.316 119.779 791.461 125.88 777.288 120.672C761.446 114.839 753.51 95.034 760.604 80.3032C768.291 64.3819 790.011 57.5373 807.568 62.6559C825.124 67.7745 838.268 82.4905 844.989 98.7986C851.094 113.702 852.587 129.965 849.292 145.655C847.016 156.457 842.213 167.141 833.7 174.536C825.187 181.931 812.307 185.413 801.58 181.321C790.853 177.229 783.93 164.552 788.452 154.404C792.973 144.256 806.944 140.283 817.468 144.509C827.993 148.735 834.62 159.478 835.571 170.325C836.522 181.172 832.764 191.975 827.167 201.453C814.562 222.619 793.665 238.14 769.071 244.604C757.189 247.655 744.123 248.369 732.975 243.325C723.417 238.995 716.229 230.692 712.175 221.362C707.871 211.497 706.92 200.084 710.85 190.115C714.779 180.146 723.963 171.813 734.971 169.819C745.979 167.825 758.359 172.899 763.317 182.467C768.618 192.63 764.876 205.471 757.08 213.997C749.284 222.523 737.871 227.433 726.722 231.242C709.519 237.092 691.586 240.764 673.382 242.164C661.079 243.101 647.655 242.685 637.972 235.394C629.708 229.174 625.794 219.145 622.926 209.473C619.62 198.269 617.25 186.038 621.694 175.25C626.137 164.462 639.874 156.353 650.882 161.397C661.345 166.203 663.746 180.741 657.556 190.16C651.366 199.578 639.204 204.013 627.603 204.429C603.966 205.277 580.624 190.398 572.376 169.254C564.128 148.11 571.643 122.279 590.12 108.247C601.128 99.855 616.33 95.6143 629.708 99.8402C643.086 104.066 653.096 118.053 649.838 131.087C646.875 142.827 633.856 150.892 621.226 150.312C608.596 149.732 597.121 141.548 591.211 130.879C585.302 120.21 584.507 107.414 587.079 95.5995C589.652 83.785 595.359 72.7889 601.954 62.4773C609.949 49.9814 619.27 38.3038 629.77 27.6292C636.756 20.5316 644.552 13.7019 654.188 10.4432C673.07 4.04496 695.133 13.6572 706.375 29.504C717.616 45.3509 719.55 65.8253 716.4 84.7224C713.656 101.194 705.969 118.589 690.174 125.746C675.767 132.293 658.756 128.573 643.398 124.511C633.325 121.862 623.128 119.035 614.381 113.574C605.634 108.113 598.446 99.5426 597.401 89.6327C596.435 80.3627 601.003 71.1076 607.957 64.5903C614.911 58.073 624.017 53.996 633.341 51.1986C667.644 41.0953 708.682 49.4428 731.571 75.8542C742.486 88.5019 748.972 105.078 747.164 121.386C745.355 137.694 734.69 153.318 718.848 159.686C702.056 166.441 681.63 161.948 667.846 150.565C654.063 139.182 646.61 121.877 645.253 104.527C644.1 89.9898 647.093 74.9465 655.108 62.5369C663.122 50.1272 676.422 40.5745 691.484 38.1045C710.725 34.95 730.698 43.6248 743.858 57.448C757.018 71.2712 764.128 89.3946 767.62 107.711C771.02 125.359 770.084 146.399 755.24 157.439C745.495 164.656 732.32 165.519 720.002 166.099C709.93 166.575 698.968 166.799 690.829 161.115C680.476 153.898 678.605 139.643 681.178 127.665C684.374 112.785 693.418 98.873 707.029 91.0909C720.641 83.3089 738.837 82.5351 752.247 90.6892C764.72 98.3075 771.441 112.041 776.555 125.329C781.342 137.768 785.286 151.666 780.25 164.016C776.414 173.405 767.776 180.473 757.938 184.282C748.099 188.091 737.403 188.969 726.847 188.657C715.293 188.329 703.459 186.544 693.433 181.098C683.407 175.652 675.284 166.04 674.27 155.044C673.257 144.048 680.71 132.263 692.014 129.927C702.102 127.859 712.845 133.691 717.835 142.322C722.824 150.952 722.7 161.665 719.394 171.01C716.914 178.117 712.717 184.569 707.143 189.845C701.569 195.12 694.774 199.071 687.305 201.379C679.787 203.539 671.812 203.815 664.15 202.181C656.487 200.547 649.394 197.058 643.554 192.049C632.125 181.842 627.354 165.177 632.343 151.011C637.114 137.486 650.009 127.382 664.385 123.454C678.761 119.526 694.384 121.267 708.433 126.162C722.201 130.953 735.298 139.241 742.065 151.636C744.981 157.096 746.595 163.104 746.792 169.229C746.989 175.354 745.763 181.445 743.203 187.065C740.556 192.651 736.666 197.619 731.803 201.626C726.94 205.632 721.221 208.579 715.044 210.262C702.367 213.64 688.412 211.333 676.968 205.143C665.556 198.678 656.3 189.257 650.274 177.973C643.538 166.366 640.391 153.172 641.2 139.926C642.114 126.611 648.235 114.11 658.351 104.899C668.236 96.269 681.427 91.8349 694.618 89.5583C705.626 87.6388 717.523 87.1925 727.502 92.0432C737.481 96.894 744.56 108.411 740.802 118.499C738.214 125.418 731.119 130.18 723.651 131.712C716.182 133.245 708.261 131.98 700.964 129.704C686.23 125.15 672.493 116.074 665.492 102.92C658.491 89.7666 659.551 72.2682 670.279 61.6292C680.523 51.4664 696.489 49.3535 711.161 47.8358C721.826 46.7198 734.207 46.1693 741.504 53.6835C746.945 59.2782 747.663 67.5662 748.084 75.1846C748.879 89.35 748.91 105.465 738.136 115.255C728.016 124.436 712.268 124.332 698.407 122.695C686.495 121.207 673.46 118.336 666.49 109.006C658.398 98.1588 661.812 82.7137 669.312 71.4944C685.684 47.0323 720.657 35.6493 749.284 45.4699C777.911 55.2905 797.277 85.3325 793.581 114.139C792.428 123.067 788.904 132.263 781.482 137.768C772.345 144.539 759.341 144.256 748.286 141.027C727.362 134.822 709.415 118.187 705.127 97.6231C700.839 77.0594 711.91 53.8472 732.102 45.708C750.079 38.4616 771.846 43.9522 786.487 56.2725C801.128 68.5929 809.345 86.627 812.994 104.914C816.829 124.154 814.553 146.979 798.275 158.823C787.36 166.694 772.891 167.751 759.294 168.063C732.997 168.54 706.704 166.903 680.694 163.168C672.992 162.067 665.102 160.713 658.413 156.978C651.724 153.243 646.22 146.562 646.142 139.122C646.142 132.888 649.806 127.055 654.765 123.008C659.723 118.961 665.835 116.461 671.916 114.229C688.335 108.277 705.798 103.679 723.37 104.929C740.942 106.179 758.624 113.991 768.01 128.186C775.354 139.271 776.789 154.121 770.256 165.653C763.551 177.452 749.986 184.208 736.623 188.196C719.238 193.389 700.418 195.07 682.768 190.844C665.118 186.618 648.762 176.069 639.968 160.847C631.174 145.625 630.862 125.746 640.966 111.297C646.813 102.965 656.854 96.4178 667.27 97.6826C676.625 98.7688 684.249 105.866 687.991 114.05C691.734 122.234 692.139 131.519 691.827 140.476C671.682 145.417 648.653 132.01 644.037 112.652C640.779 98.9623 646.704 87.0585 650.633 74.2472C652.831 67.0603 654.032 59.3675 658.07 52.8949C669.983 33.5513 696.364 19.6537 717.523 11.7377C731.859 6.39261 746.975 3.19538 762.335 2.2594V2.2594Z" stroke="black" stroke-width="3" stroke-miterlimit="10"/>
</svg>
