<svg width="228" height="228" viewBox="0 0 228 228" fill="none" xmlns="http://www.w3.org/2000/svg">
<mask id="mask0" mask-type="alpha" maskUnits="userSpaceOnUse" x="0" y="0" width="228" height="228">
<rect width="228" height="228" fill="#C4C4C4"/>
</mask>
<g mask="url(#mask0)">
<path d="M25.2975 244.092C21.7048 234.696 23.1331 224.223 24.6121 214.273C27.9342 191.923 31.2929 169.42 38.6976 148.072C46.1024 126.724 57.8819 106.362 76.4307 93.5938C89.1843 100.757 100.759 110.012 110.443 120.828C111.096 118.813 111.75 116.797 112.403 114.782C120.266 118.358 128.903 122.754 131.697 130.928C132.571 133.482 132.78 136.212 132.889 138.909C133.392 151.27 131.945 163.709 128.618 175.624C125.969 185.109 120.615 195.562 110.913 197.25C110.148 214.753 109.879 232.278 110.105 249.797" stroke="#231815" stroke-width="0.606383" stroke-miterlimit="10" stroke-linecap="round" stroke-linejoin="round"/>
<path d="M118.246 111.96C116.2 108.543 115.01 104.617 114.813 100.639C114.769 99.7493 114.78 98.8262 115.142 98.0121C115.523 97.156 116.251 96.51 116.984 95.9266C120.318 93.2737 124.211 91.3276 128.333 90.2534C128.73 90.1502 129.151 90.0553 129.543 90.1749C130.297 90.4055 130.601 91.2907 130.781 92.0587C132.882 101.021 132.865 110.473 130.734 119.428" stroke="#231815" stroke-width="0.606383" stroke-miterlimit="10" stroke-linecap="round" stroke-linejoin="round"/>
<path d="M88.2185 70.2625C79.1416 62.9975 78.1246 48.7399 83.5001 38.4311C88.544 28.7585 98.8366 21.7206 109.745 21.6663C120.654 21.6121 131.466 29.2 134.11 39.7834" stroke="#231815" stroke-width="0.606383" stroke-miterlimit="10" stroke-linecap="round" stroke-linejoin="round"/>
<path d="M134.707 44.838C136.138 49.061 135.532 53.6565 135.365 58.1121C135.199 62.5677 135.642 67.4246 138.635 70.7286C136.92 71.2761 135.205 71.8237 133.49 72.3712C132.177 76.5096 130.83 80.7176 128.358 84.2868C125.886 87.856 122.073 90.7554 117.742 91.0565C113.186 91.3732 108.885 88.808 105.596 85.6393C101.919 89.4746 99.3064 94.3201 98.123 99.4997" stroke="#231815" stroke-width="0.606383" stroke-miterlimit="10" stroke-linecap="round" stroke-linejoin="round"/>
<path d="M87.27 76.0143C84.5165 81.5289 81.9058 87.1149 79.4414 92.7647" stroke="#231815" stroke-width="0.606383" stroke-miterlimit="10" stroke-linecap="round" stroke-linejoin="round"/>
<path d="M129.31 38.8727C130.472 41.0712 130.432 43.86 129.209 46.0247C127.06 49.8262 122.253 50.9533 118.28 52.7673C115.367 54.098 112.665 56.0055 110.748 58.5722C108.832 61.139 107.754 64.4044 108.156 67.5824" stroke="#231815" stroke-width="0.606383" stroke-miterlimit="10" stroke-linecap="round" stroke-linejoin="round"/>
<path d="M176.951 51.3246C171.863 52.8869 166.607 53.9017 161.303 54.3457C158.363 54.5919 155.083 54.5519 152.892 52.5764C150.938 50.815 150.393 47.8712 150.944 45.2991C151.496 42.727 152.979 40.4573 154.578 38.3684C157.2 34.9431 160.329 31.7368 164.297 30.0463C168.266 28.3558 173.214 28.4548 176.553 31.1865C179.901 33.9262 180.947 39.0326 179.154 42.9695C177.361 46.9066 172.996 49.443 168.673 49.2912C166.786 49.2249 164.873 48.6686 163.423 47.4603C159.502 44.193 160.694 37.354 164.632 34.1071C169.383 30.1899 177.18 30.7358 181.339 35.2769C182.789 36.8598 183.834 39.1053 183.144 41.1379C182.224 43.8477 178.906 44.7392 176.082 45.2047C170.827 46.0708 164.435 46.4328 161.237 42.1742C158.748 38.8592 159.457 34.0761 161.338 30.3818C164.351 24.4649 170.131 20.0325 176.627 18.6577C183.123 17.283 190.203 18.9938 195.355 23.1829C199.625 26.6554 202.596 32.6771 200.329 37.6927C198.887 40.8832 195.646 42.9338 192.3 43.9649C189.703 44.7652 186.703 45.0067 184.423 43.5287C181.42 41.5819 180.812 37.0875 182.547 33.9573C184.282 30.8271 187.797 29.0048 191.334 28.4562C196.363 27.676 201.817 29.3071 205.246 33.0672C208.675 36.8273 209.755 42.7076 207.465 47.2522C205.175 51.7967 199.446 54.4444 194.62 52.83C191.168 51.6753 188.375 47.8718 189.541 44.4236C190.367 41.9805 192.915 40.4335 195.472 40.0988C202.465 39.1837 208.68 46.8856 207.351 53.8119C206.022 60.7381 198.716 65.5385 191.668 65.2731C189.422 65.1885 187.045 64.5915 185.547 62.9165C183.045 60.1195 184.653 54.8631 188.291 53.9445C191.93 53.0258 195.84 56.889 194.966 60.5385C194.362 63.0599 192.097 64.8051 189.863 66.1202C184.734 69.1388 178.944 71.0277 173.022 71.6147C170.704 71.8445 168.308 71.8686 166.107 71.1047C160.56 69.1799 157.724 62.1676 159.656 56.6236C161.588 51.0796 167.452 47.4296 173.321 47.2701C176.96 47.1713 181.058 48.6539 182.378 52.0465C183.571 55.1116 181.998 58.7101 179.466 60.8092C176.934 62.9083 173.645 63.8202 170.439 64.5577C166.894 65.3732 162.671 65.8672 160.076 63.3186C158.813 62.0791 158.195 60.3031 158.016 58.543C157.285 51.3542 164.596 44.5334 171.717 45.7609C174.331 46.2116 177.033 47.9344 177.388 50.5635C177.677 52.7047 176.357 54.6967 175.1 56.4539C172.848 59.6023 170.449 62.8766 166.961 64.5563C161.291 67.2869 153.611 64.3465 151.214 58.5272C148.818 52.7079 152.199 45.212 158.148 43.1574C160.29 42.4177 163.016 42.4823 164.417 44.2635C166.084 46.3835 164.607 49.8975 162.051 50.7555C159.494 51.6135 156.58 50.2607 154.954 48.1091C153.328 45.9576 152.77 43.1831 152.593 40.4921C152.25 35.2775 153.243 29.8459 156.187 25.5279C159.13 21.2099 164.206 18.1903 169.423 18.4852C174.641 18.7801 179.631 22.8383 180.259 28.0262C180.907 33.3787 176.411 38.796 171.031 39.1459C169.313 39.2576 167.468 38.861 166.257 37.6384C163.538 34.8948 165.538 30.1564 168.281 27.4367C175.053 20.7218 185.117 18.4914 194.651 18.2649C197.075 18.2073 199.558 18.2692 201.831 19.1146C206.407 20.8163 209.463 25.9011 208.817 30.7404C208.172 35.5797 203.891 39.6862 199.029 40.1296C195.318 40.4681 191.063 38.1517 190.748 34.4387C190.436 30.7701 194.27 27.7382 197.951 27.794C201.632 27.8497 204.916 30.1713 207.409 32.8807C211.262 37.0684 213.89 42.9687 212.365 48.4511C210.84 53.9334 203.894 57.7939 199.084 54.754C198.244 54.2231 197.499 53.5055 197.069 52.6094C195.63 49.6082 198.792 45.8229 202.112 46.0655C205.432 46.3081 207.957 49.6131 208.134 52.9369C208.31 56.2607 206.6 59.441 204.342 61.8862C202.332 64.0632 199.711 65.8611 196.76 66.1325C193.809 66.4039 190.572 64.7859 189.67 61.9631C188.768 59.1403 191.098 55.58 194.048 55.8551C197.982 56.2221 198.889 61.8657 197.189 65.4324C194.164 71.7799 186.181 75.2774 179.463 73.1988C175.866 72.0856 172.478 69.0022 172.612 65.239C172.746 61.4759 178.093 58.6535 180.561 61.498C183.102 64.428 180.118 68.9087 176.893 71.0636C174.091 72.9361 170.142 74.2772 167.54 72.1348C164.494 69.6264 165.878 64.7455 167.649 61.2191C169.885 56.7674 172.424 52.3243 176.239 49.1207C180.054 45.917 185.406 44.1426 190.129 45.7269C192.535 46.5341 194.823 48.5118 194.899 51.0486C194.987 53.9454 192.094 56.2093 189.217 56.5624C182.874 57.3408 177.255 50.4584 178.293 44.1529C179.331 37.8475 185.664 33.2502 192.05 33.0092C194.283 32.9249 196.628 33.3266 198.403 34.6845C200.178 36.0423 201.21 38.5192 200.41 40.606C199.6 42.7183 197.236 43.8449 194.988 44.1002C188.752 44.8085 182.478 39.562 182.071 33.2991C181.941 31.3058 182.408 29.1489 183.873 27.7915C184.9 26.8401 186.296 26.3889 187.675 26.1478C194.589 24.9392 202.076 28.9167 204.945 35.3231C206.23 38.1919 206.612 41.6125 205.274 44.4569C203.937 47.3013 200.603 49.2822 197.571 48.4554C196.766 48.2361 195.987 47.8155 195.502 47.1372C193.786 44.7368 197.408 41.4416 200.205 42.3831C203.001 43.3247 204.395 46.4275 205.127 49.286C206.963 56.4534 205.694 65.6581 198.975 68.7553C196.487 69.9022 193.66 69.9939 190.921 70.0661C187.879 70.1464 184.836 70.2267 181.793 70.3069C178.757 70.3869 175.607 70.4458 172.826 69.2273C170.044 68.0089 167.745 65.1228 176.951 51.3246Z" stroke="#231815" stroke-width="0.606383" stroke-miterlimit="10" stroke-linecap="round" stroke-linejoin="round"/>
</g>
</svg>
